<?xml version="1.0" standalone="no"?><!DOCTYPE svg PUBLIC "-//W3C//DTD SVG 1.1//EN" "http://www.w3.org/Graphics/SVG/1.1/DTD/svg11.dtd"><svg t="1772003340827" class="icon" viewBox="0 0 1024 1024" version="1.1" xmlns="http://www.w3.org/2000/svg" p-id="4825" xmlns:xlink="http://www.w3.org/1999/xlink" width="200" height="200"><path d="M896 0a128 128 0 0 1 128 128v768a128 128 0 0 1-128 128H128a128 128 0 0 1-128-128V128a128 128 0 0 1 128-128h768zM518.32 256a249.776 249.776 0 0 0-240.272 182.064A166.496 166.496 0 0 0 144 600.752c0 91.44 74.4 165.936 165.936 165.936h388.112l4.48-0.048C791.92 764.24 864 690.8 864 600.752a164.704 164.704 0 0 0-32.16-97.92l-3.68-4.832a167.36 167.36 0 0 0-66.96-50.544C734.608 335.872 634.288 256 518.32 256z m-115.984 272.816c16.656 0 28.704 4.464 36.112 13.376 7.408 8.912 11.12 22.656 11.12 41.328h-30.16l-0.048-3.68c-0.224-8.256-1.232-14.544-3.056-18.848-2.08-4.896-5.968-7.36-11.712-7.36-14.464 0-21.664 11.392-21.664 34.176v53.184l0.064 3.936c0.368 10.176 2.192 17.6 5.472 22.224 3.696 5.2 9.136 7.808 16.336 7.808 5.408 0 9.424-2.736 11.952-8.24 2.56-5.52 3.92-15.04 3.92-28.512h30.656l-0.08 4.688c-0.56 16.88-4.032 30.336-10.448 40.384l-1.568 2.256c-7.168 9.456-18.624 14.176-34.4 14.176-20.096 0-34.048-5.216-41.888-15.616-7.84-10.416-11.712-27.68-11.616-51.808V597.6l0.048-4.752c0.48-23.296 4.512-39.616 12.096-48.96 8.208-9.984 21.168-15.04 38.88-15.04z m125.392 0.032c21.344 0 35.6 5.696 42.72 17.072 7.12 11.392 10.688 29.296 10.672 53.728v32.864l-0.064 4.752c-0.48 21.744-4.336 37.424-11.584 47.04-7.76 10.32-21.52 15.44-41.328 15.392-19.248 0-33.008-4.912-41.344-14.752-8.32-9.84-12.48-27.36-12.48-52.64v-32.656l0.048-4.96c0.48-24.32 4.592-41.2 12.32-50.672 8.272-10.112 21.936-15.152 41.04-15.168z m100.32 64.96c9.616 0 16.768 2.576 21.52 7.664 4.768 5.12 7.328 11.888 7.12 18.88 0 10.144-4.208 19.52-12.688 28.096l-14.608 15.232-2.096 2.24c-5.28 5.856-7.904 10.944-7.904 15.264h35.888l0.016 0.016v15.04h-56.288l0.16-4c0.432-7.76 1.44-14.128 3.12-19.088 2-5.792 7.44-13.552 16.56-23.184l9.008-9.472 2.16-2.176c2.08-2.256 3.936-4.72 5.52-7.36 1.488-3.2 2.176-6.688 1.984-10.24 0-7.936-3.072-11.936-9.264-11.936-4.384 0-7.248 1.376-8.56 4.144-1.28 2.752-1.872 7.696-1.872 15.024h-17.968v-4.128l0.08-2.928c0.88-18.08 10.272-27.104 28.128-27.104z m-100.32-40.208c-14.528 0-21.792 11.408-21.776 34.208v53.184l0.048 3.296c0.672 20.416 7.744 30.624 21.184 30.64 14.896 0 22.336-10.88 22.32-32.656v-52.24l-0.048-3.392c-0.624-22.032-7.872-33.04-21.712-33.04z m-152.64-216.128c20.528 16.368 36.576 27.2 48.128 32.528 17.328 8 66.304-0.64 94.016 24.576 13.632 12.416 22.336 33.92 26.112 64.512 1.488-9.792 5.28-17.264 11.36-22.4 18.08-15.36 48.912-8.816 60.064-13.488 7.44-3.12 17.84-9.632 31.2-19.536l-5.328 25.024 0.16 4.896c0.336 25.808-7.312 46.8-22.976 62.976-16.272 16.8-42.832 20.464-79.696 10.976-57.968 12.528-99.216 5.184-123.76-21.984-24.208-26.816-35.088-61.008-32.672-102.592l0.416-5.712z m80.128 100.992l84.48 64.912 41.344-34.896-35.568 26.464-1.824-0.48c-8.256-2.416-20.784-9.184-37.568-20.304a1145.056 1145.056 0 0 1-41.36-28.688l-9.504-7.008z" fill="#0CE598" p-id="4826"></path></svg>